# xmcd
#
# Track frame offsets:
#	150
#	14611
#	34654
#	55860
#	74746
#	91292
#	108902
#	126056
#	141702
#	159792
#	177279
#	200475
#	221403
#
# Disc length: 3274 seconds
#
# Revision: 0
# Processed by: cddbd v1.5.2PL0 Copyright (c) Steve Scherf et al.
# Submitted via: FairStars CD Ripper 1.90
#
DISCID=bb0cc80d
DTITLE=American Gun - The Means and The Machine
DYEAR=2008
DGENRE=Country
TTITLE0=Drunk Girls
TTITLE1=Fight Song
TTITLE2=Horses
TTITLE3=Neil Young Mood
TTITLE4=Nature vs. Man
TTITLE5=This Old Town
TTITLE6=Girl Done Gone
TTITLE7=Fast One
TTITLE8=First Impressions
TTITLE9=Find Our Way Home
TTITLE10=All The Same To Me
TTITLE11=Moonshiner
TTITLE12=Jesus Gave Us Rock And Roll
EXTD=
EXTT0=
EXTT1=
EXTT2=
EXTT3=
EXTT4=
EXTT5=
EXTT6=
EXTT7=
EXTT8=
EXTT9=
EXTT10=
EXTT11=
EXTT12=
PLAYORDER=
